<svg width="323" height="87" viewBox="0 0 323 87" fill="none" xmlns="http://www.w3.org/2000/svg">
<g clip-path="url(#clip0_7_735)">
<path d="M118.192 62.2526V13.5462H147.003V22.0355H126.693V31.9181H143.661V40.4074H126.693V62.2526H118.192Z" fill="white"/>
<path d="M164.624 63.1566C161.418 63.1566 158.498 62.3341 155.864 60.6893C153.23 59.0445 151.127 56.8355 149.562 54.0623C147.996 51.2892 147.207 48.2238 147.207 44.8594C147.207 42.3106 147.663 39.9248 148.568 37.7091C149.473 35.4933 150.719 33.5494 152.312 31.8638C153.904 30.1849 155.756 28.8663 157.865 27.9148C159.975 26.9632 162.235 26.4874 164.624 26.4874C167.83 26.4874 170.75 27.3098 173.384 28.9547C176.018 30.5995 178.121 32.8153 179.686 35.602C181.252 38.382 182.041 41.4677 182.041 44.8594C182.041 47.3878 181.585 49.7531 180.68 51.9553C179.775 54.1575 178.523 56.1014 176.937 57.7802C175.344 59.4591 173.5 60.7777 171.396 61.7292C169.293 62.6808 167.034 63.1566 164.617 63.1566H164.624ZM164.624 54.6673C166.319 54.6673 167.844 54.2119 169.191 53.3079C170.539 52.4039 171.601 51.2077 172.377 49.7259C173.152 48.2442 173.54 46.6198 173.54 44.8526C173.54 43.0854 173.139 41.393 172.336 39.8977C171.533 38.4023 170.457 37.2061 169.096 36.3157C167.735 35.4253 166.244 34.9767 164.617 34.9767C162.991 34.9767 161.432 35.4321 160.091 36.3361C158.743 37.2401 157.675 38.4499 156.885 39.952C156.096 41.4609 155.701 43.0922 155.701 44.8594C155.701 46.6266 156.109 48.353 156.919 49.8347C157.729 51.3164 158.818 52.4991 160.18 53.3691C161.541 54.2391 163.018 54.6741 164.624 54.6741V54.6673Z" fill="white"/>
<path d="M187.555 62.2526L187.521 27.4662H196.022L196.056 30.5655C197.24 29.3149 198.656 28.3226 200.303 27.5885C201.95 26.8544 203.726 26.4942 205.632 26.4942C206.912 26.4942 208.184 26.6777 209.464 27.0515L206.122 35.6088C205.237 35.2622 204.359 35.0855 203.474 35.0855C202.106 35.0855 200.854 35.4185 199.731 36.0778C198.608 36.7371 197.71 37.6343 197.049 38.7558C196.389 39.884 196.056 41.1279 196.056 42.494V62.2526H187.555Z" fill="white"/>
<path d="M213.541 62.2526V27.4662H222.042V30.5655C223.226 29.3149 224.642 28.3226 226.289 27.5885C227.936 26.8544 229.713 26.4942 231.619 26.4942C234.035 26.4942 236.26 27.0651 238.289 28.2002C240.324 29.3353 241.944 30.8578 243.148 32.7609C244.38 30.8578 246.007 29.3421 248.029 28.2002C250.05 27.0651 252.269 26.4942 254.685 26.4942C257.238 26.4942 259.558 27.1127 261.634 28.3565C263.71 29.6004 265.371 31.2588 266.617 33.3319C267.855 35.4049 268.482 37.7226 268.482 40.2715V62.2594H259.98V42.5348C259.98 41.189 259.647 39.952 258.987 38.8305C258.327 37.709 257.442 36.7983 256.339 36.1186C255.236 35.4321 253.998 35.0922 252.63 35.0922C251.262 35.0922 250.023 35.4253 248.92 36.0846C247.818 36.7439 246.926 37.6343 246.259 38.749C245.585 39.8637 245.252 41.1279 245.252 42.5416V62.2662H236.751V42.5416C236.751 41.1279 236.424 39.8637 235.777 38.749C235.131 37.6343 234.246 36.7507 233.13 36.0846C232.013 35.4185 230.775 35.0922 229.4 35.0922C228.025 35.0922 226.82 35.4321 225.704 36.1186C224.588 36.8051 223.703 37.709 223.043 38.8305C222.382 39.9588 222.049 41.189 222.049 42.5348V62.2594H213.548L213.541 62.2526Z" fill="white"/>
<path d="M275.621 62.2526V10.073H284.122V62.2594H275.621V62.2526Z" fill="white"/>
<path d="M313.975 27.4662H323L303.942 79.6526H294.917L301.22 62.2594L288.676 27.473H297.98L305.467 50.6435L313.968 27.473L313.975 27.4662Z" fill="white"/>
<path d="M32.616 0H83.318V44.4565H0V32.932C0 14.7527 14.6111 0 32.616 0Z" fill="#FFCC00"/>
<path d="M24.4874 21.5443H60.9644V66.0008H0V46.269C0 32.6242 10.9736 21.5443 24.4874 21.5443Z" fill="#FF9500"/>
<path d="M18.0319 43.0886H40.6429V87.5451H0V61.2953C0 51.2481 8.08117 43.0886 18.0319 43.0886Z" fill="#007AFF"/>
</g>
<defs>
<clipPath id="clip0_7_735">
<rect width="323" height="87" fill="white"/>
</clipPath>
</defs>
</svg>
