<svg width="13" height="3" viewBox="0 0 13 3" fill="none" xmlns="http://www.w3.org/2000/svg">
<path d="M10.9041 2.63552C10.537 2.63552 10.2227 2.50638 9.96101 2.24809C9.70272 1.98981 9.57528 1.67715 9.57868 1.31011C9.57528 0.949874 9.70272 0.642312 9.96101 0.387426C10.2227 0.129142 10.537 0 10.9041 0C11.2507 0 11.5566 0.129142 11.8217 0.387426C12.0902 0.642312 12.2261 0.949874 12.2295 1.31011C12.2261 1.5548 12.1615 1.7774 12.0358 1.97791C11.9134 2.17842 11.752 2.33815 11.5515 2.4571C11.3544 2.57604 11.1386 2.63552 10.9041 2.63552Z" fill="#0D062D"/>
<path d="M6.11478 2.63552C5.74774 2.63552 5.43338 2.50638 5.1717 2.24809C4.91342 1.98981 4.78597 1.67715 4.78937 1.31011C4.78597 0.949874 4.91342 0.642312 5.1717 0.387426C5.43338 0.129142 5.74774 0 6.11478 0C6.46142 0 6.76729 0.129142 7.03237 0.387426C7.30085 0.642312 7.43679 0.949874 7.44018 1.31011C7.43679 1.5548 7.37221 1.7774 7.24647 1.97791C7.12413 2.17842 6.9627 2.33815 6.76219 2.4571C6.56508 2.57604 6.34927 2.63552 6.11478 2.63552Z" fill="#0D062D"/>
<path d="M1.32547 2.63552C0.958436 2.63552 0.644077 2.50638 0.382395 2.24809C0.124111 1.98981 -0.00333227 1.67715 6.6204e-05 1.31011C-0.00333227 0.949874 0.124111 0.642312 0.382395 0.387426C0.644077 0.129142 0.958436 0 1.32547 0C1.67212 0 1.97798 0.129142 2.24306 0.387426C2.51154 0.642312 2.64748 0.949874 2.65088 1.31011C2.64748 1.5548 2.58291 1.7774 2.45716 1.97791C2.33482 2.17842 2.17339 2.33815 1.97288 2.4571C1.77577 2.57604 1.55997 2.63552 1.32547 2.63552Z" fill="#0D062D"/>
</svg>
