<svg width="25" height="36" viewBox="0 0 25 36" fill="none" xmlns="http://www.w3.org/2000/svg">
<mask id="path-1-inside-1_2063_53100" fill="white">
<path d="M2.88765e-05 1.7059C2.88881e-05 0.730587 0.791769 -0.0667925 1.76446 0.004624C5.37874 0.26999 8.89474 1.34802 12.0464 3.16743C15.7091 5.2818 18.7507 8.32295 20.8656 11.9853C22.9806 15.6476 24.0944 19.802 24.095 24.0312C24.0956 27.6703 23.2719 31.2544 21.6953 34.5175C21.271 35.3957 20.1846 35.6829 19.3399 35.1954V35.1954C18.4951 34.7079 18.2131 33.6306 18.6263 32.7472C19.8994 30.0254 20.5636 27.0508 20.5631 24.0317C20.5626 20.4225 19.612 16.877 17.8071 13.7515C16.0022 10.6261 13.4064 8.03069 10.2806 6.22625C7.66599 4.71686 4.75755 3.80536 1.76385 3.54763C0.792139 3.46398 2.88649e-05 2.68121 2.88765e-05 1.7059V1.7059Z"/>
</mask>
<path d="M2.88765e-05 1.7059C2.88881e-05 0.730587 0.791769 -0.0667925 1.76446 0.004624C5.37874 0.26999 8.89474 1.34802 12.0464 3.16743C15.7091 5.2818 18.7507 8.32295 20.8656 11.9853C22.9806 15.6476 24.0944 19.802 24.095 24.0312C24.0956 27.6703 23.2719 31.2544 21.6953 34.5175C21.271 35.3957 20.1846 35.6829 19.3399 35.1954V35.1954C18.4951 34.7079 18.2131 33.6306 18.6263 32.7472C19.8994 30.0254 20.5636 27.0508 20.5631 24.0317C20.5626 20.4225 19.612 16.877 17.8071 13.7515C16.0022 10.6261 13.4064 8.03069 10.2806 6.22625C7.66599 4.71686 4.75755 3.80536 1.76385 3.54763C0.792139 3.46398 2.88649e-05 2.68121 2.88765e-05 1.7059V1.7059Z" stroke="#26C9B6" stroke-width="6.9837" mask="url(#path-1-inside-1_2063_53100)"/>
</svg>
