<svg width="49" height="49" viewBox="0 0 49 49" fill="none" xmlns="http://www.w3.org/2000/svg">
<mask id="path-1-inside-1_2063_53596" fill="white">
<path d="M48.19 24.095C48.19 37.4023 37.4023 48.19 24.095 48.19C10.7877 48.19 0 37.4023 0 24.095C0 10.7877 10.7877 0 24.095 0C37.4023 0 48.19 10.7877 48.19 24.095ZM3.53191 24.095C3.53191 35.4517 12.7383 44.6581 24.095 44.6581C35.4517 44.6581 44.6581 35.4517 44.6581 24.095C44.6581 12.7383 35.4517 3.53191 24.095 3.53191C12.7383 3.53191 3.53191 12.7383 3.53191 24.095Z"/>
</mask>
<path d="M48.19 24.095C48.19 37.4023 37.4023 48.19 24.095 48.19C10.7877 48.19 0 37.4023 0 24.095C0 10.7877 10.7877 0 24.095 0C37.4023 0 48.19 10.7877 48.19 24.095ZM3.53191 24.095C3.53191 35.4517 12.7383 44.6581 24.095 44.6581C35.4517 44.6581 44.6581 35.4517 44.6581 24.095C44.6581 12.7383 35.4517 3.53191 24.095 3.53191C12.7383 3.53191 3.53191 12.7383 3.53191 24.095Z" stroke="#26C9B6" stroke-width="6.9837" mask="url(#path-1-inside-1_2063_53596)"/>
</svg>
