<svg width="38" height="49" viewBox="0 0 38 49" fill="none" xmlns="http://www.w3.org/2000/svg">
<mask id="path-1-inside-1_2063_53089" fill="white">
<path d="M13.4607 1.7059C13.4607 0.730587 14.2524 -0.0667926 15.2251 0.00462427C18.4174 0.239005 21.5371 1.10764 24.3996 2.56614C27.7876 4.29241 30.719 6.79602 32.954 9.87226C35.189 12.9485 36.6642 16.51 37.2591 20.2657C37.8539 24.0213 37.5514 27.8644 36.3764 31.4807C35.2014 35.097 33.1872 38.384 30.4985 41.0727C27.8097 43.7614 24.5228 45.7756 20.9065 46.9507C17.2901 48.1257 13.447 48.4281 9.69142 47.8333C6.51834 47.3307 3.48382 46.1997 0.763469 44.513C-0.0654329 43.999 -0.237245 42.8886 0.336028 42.0995V42.0995C0.909301 41.3105 2.01022 41.1428 2.84553 41.6463C5.11003 43.0112 7.62154 43.9295 10.2439 44.3449C13.4491 44.8525 16.7288 44.5944 19.8151 43.5916C22.9013 42.5888 25.7064 40.8699 28.001 38.5752C30.2956 36.2806 32.0146 33.4755 33.0174 30.3893C34.0202 27.303 34.2783 24.0233 33.7706 20.8182C33.263 17.6131 32.004 14.5736 30.0966 11.9483C28.1892 9.32295 25.6875 7.18633 22.7962 5.71309C20.4305 4.50771 17.8588 3.77443 15.2245 3.54763C14.2528 3.46398 13.4607 2.68121 13.4607 1.7059V1.7059Z"/>
</mask>
<path d="M13.4607 1.7059C13.4607 0.730587 14.2524 -0.0667926 15.2251 0.00462427C18.4174 0.239005 21.5371 1.10764 24.3996 2.56614C27.7876 4.29241 30.719 6.79602 32.954 9.87226C35.189 12.9485 36.6642 16.51 37.2591 20.2657C37.8539 24.0213 37.5514 27.8644 36.3764 31.4807C35.2014 35.097 33.1872 38.384 30.4985 41.0727C27.8097 43.7614 24.5228 45.7756 20.9065 46.9507C17.2901 48.1257 13.447 48.4281 9.69142 47.8333C6.51834 47.3307 3.48382 46.1997 0.763469 44.513C-0.0654329 43.999 -0.237245 42.8886 0.336028 42.0995V42.0995C0.909301 41.3105 2.01022 41.1428 2.84553 41.6463C5.11003 43.0112 7.62154 43.9295 10.2439 44.3449C13.4491 44.8525 16.7288 44.5944 19.8151 43.5916C22.9013 42.5888 25.7064 40.8699 28.001 38.5752C30.2956 36.2806 32.0146 33.4755 33.0174 30.3893C34.0202 27.303 34.2783 24.0233 33.7706 20.8182C33.263 17.6131 32.004 14.5736 30.0966 11.9483C28.1892 9.32295 25.6875 7.18633 22.7962 5.71309C20.4305 4.50771 17.8588 3.77443 15.2245 3.54763C14.2528 3.46398 13.4607 2.68121 13.4607 1.7059V1.7059Z" stroke="#26C9B6" stroke-width="6.9837" mask="url(#path-1-inside-1_2063_53089)"/>
</svg>
