<svg width="16" height="19" viewBox="0 0 16 19" fill="none" xmlns="http://www.w3.org/2000/svg">
<path d="M0.660339 3.91269V15.3587C0.660339 16.8176 1.84294 18.0001 3.30173 18.0001H12.1064C13.5652 18.0001 14.7478 16.8176 14.7478 15.3587V6.55409C14.7478 5.09529 13.5652 3.91269 12.1064 3.91269H0.660339ZM0.660339 3.91269V3.03223" stroke="#6A90BA" stroke-width="1.3207"/>
<path d="M12.9869 3.91322V4.57357H13.6472V3.91322H12.9869ZM1.60339 4.57357H12.9869V3.25287H1.60339V4.57357ZM13.6472 3.91322V2.42173H12.3265V3.91322H13.6472ZM10.8835 0.02479L1.37663 1.38292L1.56341 2.69034L11.0703 1.33221L10.8835 0.02479ZM1.37663 1.38292C0.586724 1.49576 0 2.17226 0 2.97018H1.3207C1.3207 2.8295 1.42414 2.71023 1.56341 2.69034L1.37663 1.38292ZM13.6472 2.42173C13.6472 0.948265 12.3422 -0.18359 10.8835 0.02479L11.0703 1.33221C11.7333 1.2375 12.3265 1.75197 12.3265 2.42173H13.6472ZM1.60339 3.25287C1.44726 3.25287 1.3207 3.12631 1.3207 2.97018H0C0 3.85571 0.717861 4.57357 1.60339 4.57357V3.25287Z" fill="#6A90BA"/>
<path d="M4.18219 9.19531H11.2259" stroke="#6A90BA" stroke-width="1.3207" stroke-linecap="round"/>
<path d="M4.18219 12.2769H9.02475" stroke="#6A90BA" stroke-width="1.3207" stroke-linecap="round"/>
</svg>
