<svg width="14" height="13" viewBox="0 0 14 13" fill="none" xmlns="http://www.w3.org/2000/svg">
<path fill-rule="evenodd" clip-rule="evenodd" d="M5.88782 0.730203C5.47758 0.0406682 4.57975 -0.216026 3.87195 0.202378L2.81888 0.804999C2.04216 1.24902 1.7788 2.24463 2.22251 3.01259L2.22282 3.01313C2.45172 3.40803 2.41579 3.66029 2.34435 3.78427C2.27286 3.90832 2.0727 4.06553 1.61777 4.06553C0.72233 4.06553 0 4.7971 0 5.68329V6.75773C0 7.64396 0.72233 8.3755 1.61777 8.3755C2.0727 8.3755 2.27286 8.5327 2.34435 8.65675C2.41579 8.78074 2.45172 9.03299 2.22282 9.4279L2.22251 9.42845C1.7788 10.1964 2.0424 11.1922 2.81913 11.6362L3.872 12.2387C4.5798 12.657 5.47758 12.4004 5.88782 11.7108L5.95772 11.5902C6.18665 11.1952 6.42406 11.0998 6.56795 11.0998C6.71123 11.0998 6.94681 11.1944 7.17269 11.5884L7.17367 11.5902L7.24082 11.7061L7.24357 11.7108C7.65381 12.4004 8.55158 12.657 9.25937 12.2387L10.3125 11.6361C11.0898 11.1917 11.3515 10.203 10.91 9.43035L10.9086 9.4279C10.6796 9.03299 10.7156 8.78074 10.787 8.65675C10.8585 8.5327 11.0587 8.3755 11.5136 8.3755C12.4091 8.3755 13.1314 7.64396 13.1314 6.75773V5.68329C13.1314 4.78786 12.3998 4.06553 11.5136 4.06553C11.0587 4.06553 10.8585 3.90832 10.787 3.78427C10.7156 3.66029 10.6796 3.40803 10.9086 3.01313L10.9089 3.01259C11.3526 2.24455 11.0892 1.2488 10.3123 0.804858L9.25943 0.202378C8.55164 -0.216026 7.65381 0.0406438 7.24357 0.730185L7.17367 0.850889C6.94474 1.24582 6.70732 1.34127 6.56337 1.34127C6.42015 1.34127 6.18457 1.24662 5.95869 0.852586L5.95772 0.850889L5.89056 0.734886L5.88782 0.730203ZM8.39407 6.22051C8.39407 7.23201 7.57414 8.05195 6.56264 8.05195C5.55114 8.05195 4.73121 7.23201 4.73121 6.22051C4.73121 5.20901 5.55114 4.38908 6.56264 4.38908C7.57414 4.38908 8.39407 5.20901 8.39407 6.22051Z" fill="#6A90BA"/>
</svg>
