<svg width="14" height="17" viewBox="0 0 14 17" fill="none" xmlns="http://www.w3.org/2000/svg">
<path d="M10.9509 5.71589C12.2107 6.50323 12.8406 6.89689 13.0566 7.40098C13.2453 7.84111 13.2453 8.33942 13.0566 8.77963C12.8406 9.28363 12.2107 9.67729 10.9509 10.4647L5.034 14.1628C3.63579 15.0367 2.93669 15.4736 2.35976 15.4272C1.85688 15.3868 1.39591 15.1313 1.0951 14.7263C0.75 14.2617 0.75 13.4373 0.75 11.7884V4.39218C0.75 2.74335 0.75 1.91894 1.0951 1.45429C1.39591 1.04927 1.85688 0.793776 2.35976 0.753342C2.93669 0.706967 3.63579 1.14391 5.034 2.01779L10.9509 5.71589Z" stroke="#6A90BA" stroke-width="1.5" stroke-linejoin="round"/>
</svg>
