<svg width="19" height="16" viewBox="0 0 19 16" fill="none" xmlns="http://www.w3.org/2000/svg">
<path d="M0.863636 16H7.77273C8.00178 16 8.22145 15.9068 8.38341 15.7409C8.54537 15.575 8.63636 15.35 8.63636 15.1154C8.63636 14.8808 8.54537 14.6558 8.38341 14.4899C8.22145 14.324 8.00178 14.2309 7.77273 14.2309H1.78859C1.99816 12.7579 2.71798 11.4112 3.81662 10.4368C4.91527 9.46244 6.31943 8.92526 7.77273 8.92341C8.78964 8.93244 9.77759 8.57679 10.5654 7.91808C11.3531 7.25936 11.8911 6.33912 12.086 5.31682C12.2808 4.29452 12.1204 3.2346 11.6324 2.32075C11.1444 1.40691 10.3596 0.69673 9.41407 0.313302C8.46853 -0.0701254 7.42182 -0.102639 6.45533 0.221397C5.48884 0.545433 4.66349 1.2056 4.12233 2.08747C3.58117 2.96935 3.35829 4.01736 3.49233 5.04988C3.62637 6.08239 4.10888 7.03434 4.85623 7.74074C3.42277 8.33634 2.19516 9.35604 1.33018 10.6696C0.465193 11.9832 0.00208685 13.531 0 15.1154C0 15.35 0.09099 15.575 0.252953 15.7409C0.414916 15.9068 0.634586 16 0.863636 16ZM7.77273 1.84682C8.28516 1.84682 8.78609 2.00246 9.21216 2.29406C9.63823 2.58565 9.97032 3.0001 10.1664 3.48501C10.3625 3.96991 10.4138 4.50349 10.3139 5.01826C10.2139 5.53303 9.96712 6.00588 9.60478 6.37701C9.24243 6.74814 8.78078 7.00088 8.27819 7.10327C7.7756 7.20567 7.25466 7.15312 6.78123 6.95226C6.3078 6.75141 5.90316 6.41127 5.61847 5.97487C5.33377 5.53847 5.18182 5.0254 5.18182 4.50054C5.18182 3.79673 5.45479 3.12175 5.94068 2.62408C6.42657 2.12641 7.08558 1.84682 7.77273 1.84682ZM19 11.5771C19 11.8117 18.909 12.0367 18.747 12.2026C18.5851 12.3685 18.3654 12.4617 18.1364 12.4617H15.5455V15.1154C15.5455 15.35 15.4545 15.575 15.2925 15.7409C15.1305 15.9068 14.9109 16 14.6818 16C14.4528 16 14.2331 15.9068 14.0711 15.7409C13.9092 15.575 13.8182 15.35 13.8182 15.1154V12.4617H11.2273C10.9982 12.4617 10.7786 12.3685 10.6166 12.2026C10.4546 12.0367 10.3636 11.8117 10.3636 11.5771C10.3636 11.3425 10.4546 11.1175 10.6166 10.9516C10.7786 10.7858 10.9982 10.6926 11.2273 10.6926H13.8182V8.03884C13.8182 7.80423 13.9092 7.57924 14.0711 7.41335C14.2331 7.24746 14.4528 7.15426 14.6818 7.15426C14.9109 7.15426 15.1305 7.24746 15.2925 7.41335C15.4545 7.57924 15.5455 7.80423 15.5455 8.03884V10.6926H18.1364C18.3654 10.6926 18.5851 10.7858 18.747 10.9516C18.909 11.1175 19 11.3425 19 11.5771Z" fill="#FF7700"/>
</svg>
