<svg width="24" height="24" viewBox="0 0 24 24" fill="none" xmlns="http://www.w3.org/2000/svg">
<path d="M3 4.5C3 3.94772 3.44772 3.5 4 3.5H20C20.5523 3.5 21 3.94772 21 4.5C21 5.05228 20.5523 5.5 20 5.5H4C3.44772 5.5 3 5.05228 3 4.5ZM7 19.5C7 18.9477 7.44772 18.5 8 18.5H20C20.5523 18.5 21 18.9477 21 19.5C21 20.0523 20.5523 20.5 20 20.5H8C7.44772 20.5 7 20.0523 7 19.5ZM3 14.5C3 13.9477 3.44772 13.5 4 13.5H20C20.5523 13.5 21 13.9477 21 14.5C21 15.0523 20.5523 15.5 20 15.5H4C3.44772 15.5 3 15.0523 3 14.5ZM7 9.5C7 8.94772 7.44772 8.5 8 8.5H20C20.5523 8.5 21 8.94772 21 9.5C21 10.0523 20.5523 10.5 20 10.5H8C7.44772 10.5 7 10.0523 7 9.5Z" fill="#6A90BA"/>
</svg>
