<svg width="24" height="24" viewBox="0 0 24 24" fill="none" xmlns="http://www.w3.org/2000/svg">
<path d="M4 4.5C4 3.94772 4.44772 3.5 5 3.5H19C19.5523 3.5 20 3.94772 20 4.5C20 5.05228 19.5523 5.5 19 5.5H5C4.44772 5.5 4 5.05228 4 4.5ZM7 19.5C7 18.9477 7.44772 18.5 8 18.5H16C16.5523 18.5 17 18.9477 17 19.5C17 20.0523 16.5523 20.5 16 20.5H8C7.44772 20.5 7 20.0523 7 19.5ZM7 9.5C7 8.94772 7.44772 8.5 8 8.5H16C16.5523 8.5 17 8.94772 17 9.5C17 10.0523 16.5523 10.5 16 10.5H8C7.44772 10.5 7 10.0523 7 9.5ZM4 14.5C4 13.9477 4.44772 13.5 5 13.5H19C19.5523 13.5 20 13.9477 20 14.5C20 15.0523 19.5523 15.5 19 15.5H5C4.44772 15.5 4 15.0523 4 14.5Z" fill="#6A90BA"/>
</svg>
