<svg width="14" height="17" viewBox="0 0 14 17" fill="none" xmlns="http://www.w3.org/2000/svg">
<path d="M10.9918 5.73718C12.2563 6.52746 12.8884 6.92259 13.1053 7.42856C13.2946 7.87032 13.2946 8.37049 13.1053 8.81235C12.8884 9.31823 12.2563 9.71336 10.9918 10.5037L5.05277 14.2156C3.64935 15.0927 2.94763 15.5313 2.36856 15.4847C1.86381 15.4441 1.40111 15.1877 1.09918 14.7812C0.752796 14.3148 0.752796 13.4873 0.752796 11.8323V4.40854C0.752796 2.75356 0.752796 1.92608 1.09918 1.45969C1.40111 1.05316 1.86381 0.79672 2.36856 0.756136C2.94763 0.709588 3.64935 1.14816 5.05277 2.02529L10.9918 5.73718Z" stroke="#007AFF" stroke-width="1.5" stroke-linejoin="round"/>
</svg>
