<svg width="27" height="26" viewBox="0 0 27 26" fill="none" xmlns="http://www.w3.org/2000/svg">
<path d="M8.0963 21.5541H7.55318C3.20824 21.5541 1.03578 20.4679 1.03578 15.0367V9.60552C1.03578 5.26058 3.20824 3.08811 7.55318 3.08811H16.2431C20.588 3.08811 22.7605 5.26058 22.7605 9.60552V15.0367C22.7605 19.3816 20.588 21.5541 16.2431 21.5541H15.6999C15.3632 21.5541 15.0373 21.717 14.8309 21.9886L13.2016 24.161C12.4847 25.1169 11.3115 25.1169 10.5946 24.161L8.96528 21.9886C8.79149 21.7496 8.38958 21.5541 8.0963 21.5541Z" stroke="#19294A" stroke-width="2" stroke-miterlimit="10" stroke-linecap="round" stroke-linejoin="round"/>
<path d="M6.46653 9.60553H17.3289" stroke="#19294A" stroke-width="2" stroke-linecap="round" stroke-linejoin="round"/>
<path d="M6.46653 15.0367H12.9839" stroke="#19294A" stroke-width="2" stroke-linecap="round" stroke-linejoin="round"/>
<circle cx="21.5622" cy="5.43783" r="4.36628" fill="#FF6738" stroke="#FAFAFA" stroke-width="2"/>
</svg>
