<svg width="23" height="27" viewBox="0 0 23 27" fill="none" xmlns="http://www.w3.org/2000/svg">
<path fill-rule="evenodd" clip-rule="evenodd" d="M3.09854 14.4211C2.93603 9.86533 6.39819 6.0336 10.8396 5.85372C15.281 6.0336 18.7432 9.86533 18.5807 14.4211C18.5807 16.3133 20.5852 18.1567 20.644 20.0532C20.644 20.0801 20.644 20.1068 20.644 20.1337C20.6874 21.3487 19.7638 22.3705 18.5792 22.4181H14.1077C14.1119 23.3491 13.7697 24.2468 13.151 24.9281C12.556 25.5908 11.7178 25.9678 10.8396 25.9678C9.96126 25.9678 9.1232 25.5908 8.52824 24.9281C7.90944 24.2468 7.56728 23.3491 7.57143 22.4181H3.09854C1.91396 22.3705 0.99033 21.3487 1.03371 20.1337C1.03371 20.1068 1.03371 20.0801 1.03371 20.0532C1.09395 18.1624 3.09854 16.3148 3.09854 14.4211Z" stroke="#19294A" stroke-width="2" stroke-linecap="round" stroke-linejoin="round"/>
<path d="M7.5714 21.3405C6.97628 21.3405 6.49383 21.8229 6.49383 22.418C6.49383 23.0131 6.97628 23.4956 7.5714 23.4956V21.3405ZM14.1077 23.4956C14.7028 23.4956 15.1853 23.0131 15.1853 22.418C15.1853 21.8229 14.7028 21.3405 14.1077 21.3405V23.4956ZM12.2404 4.0577C12.8355 4.0577 13.318 3.57525 13.318 2.98013C13.318 2.38501 12.8355 1.90256 12.2404 1.90256V4.0577ZM9.43871 1.90256C8.8436 1.90256 8.36115 2.38501 8.36115 2.98013C8.36115 3.57525 8.8436 4.0577 9.43871 4.0577V1.90256ZM7.5714 23.4956H14.1077V21.3405H7.5714V23.4956ZM12.2404 1.90256H9.43871V4.0577H12.2404V1.90256Z" fill="#19294A"/>
<circle cx="17.3858" cy="5.41925" r="4.35477" fill="#FF6738" stroke="#FAFAFA" stroke-width="2"/>
</svg>
