<svg width="17" height="21" viewBox="0 0 17 21" fill="none" xmlns="http://www.w3.org/2000/svg">
<path d="M16.0558 1.88891C16.3062 1.88891 16.5465 1.78941 16.7236 1.61229C16.9007 1.43517 17.0002 1.19494 17.0002 0.944456C17.0002 0.693971 16.9007 0.453745 16.7236 0.276625C16.5465 0.0995049 16.3062 0 16.0558 0H0.944456C0.693971 0 0.453745 0.0995049 0.276625 0.276625C0.0995049 0.453745 0 0.693971 0 0.944456C0 1.19494 0.0995049 1.43517 0.276625 1.61229C0.453745 1.78941 0.693971 1.88891 0.944456 1.88891H1.93519C2.07308 3.62293 2.63692 7.31954 4.95179 9.44456C2.51037 11.8161 2.01358 16.749 1.91441 18.8891H0.944456C0.693971 18.8891 0.453745 18.9886 0.276625 19.1658C0.0995049 19.3429 0 19.5831 0 19.8336C0 20.0841 0.0995049 20.3243 0.276625 20.5014C0.453745 20.6785 0.693971 20.778 0.944456 20.778H16.0558C16.3062 20.778 16.5465 20.6785 16.7236 20.5014C16.9007 20.3243 17.0002 20.0841 17.0002 19.8336C17.0002 19.5831 16.9007 19.3429 16.7236 19.1658C16.5465 18.9886 16.3062 18.8891 16.0558 18.8891H15.0858C14.9866 16.7509 14.4899 11.818 12.0484 9.44456C14.3633 7.31765 14.9271 3.62105 15.065 1.88891H16.0558ZM9.99235 8.61911C9.84231 8.70244 9.71781 8.82507 9.63223 8.97384C9.54665 9.12261 9.50322 9.29189 9.50662 9.46349C9.51002 9.63508 9.56011 9.8025 9.65152 9.94777C9.74292 10.093 9.87218 10.2106 10.0254 10.288C12.327 11.4478 13.0477 16.2484 13.1941 18.8891H3.80616C3.94877 16.2447 4.67317 11.4478 6.97481 10.288C7.12804 10.2106 7.25729 10.093 7.3487 9.94777C7.4401 9.8025 7.49019 9.63508 7.49359 9.46349C7.49699 9.29189 7.45357 9.12261 7.36799 8.97384C7.28241 8.82507 7.15791 8.70244 7.00787 8.61911C4.60989 7.28837 3.99222 3.63049 3.8326 1.88891H13.1676C13.008 3.63049 12.3903 7.28837 9.99235 8.61911ZM8.50011 11.3335C8.50011 11.3335 11.3335 13.6002 11.3335 14.7335V17.9447H5.66674V14.7335C5.66674 13.6002 8.50011 11.3335 8.50011 11.3335Z" fill="#FF7700"/>
</svg>
